# Exported from Wings 3D 1.5.2
mtllib DIAMOND.mtl
o Diamond_Cone
#108 vertices, 124 faces
v -0.22013500 -0.21697500 -1.63806500
v -1.31394500 -0.21697500 -1.00262800
v -1.63806500 -0.21697600 0.22013500
v -1.00262800 -0.21697500 1.31394600
v 0.22013500 -0.21697500 1.63806500
v 1.31394600 -0.21697500 1.00262800
v 1.63806500 -0.21697500 -0.22013500
v 1.00262800 -0.21697500 -1.31394500
v 0.65697300 -1.09470900 0.50131400
v 0.85226700 -0.11649400 1.46705100
v 0.32848700 -1.53357600 0.25065700
v 0.11006800 -1.09470900 0.81903200
v -0.50131400 -1.09470900 0.65697300
v -0.81903200 -1.09470900 0.11006700
v -0.65697300 -1.09470900 -0.50131400
v -0.11006700 -1.09470900 -0.81903200
v 0.50131400 -1.09470900 -0.65697300
v 0.81903300 -1.09470900 -0.11006700
v 1.64000600 -0.11649400 0.43471800
v 0.25065700 -1.53357600 -0.32848600
v -0.40951600 -1.53357600 5.5034000e-2
v 1.46705200 -0.11649400 -0.85226700
v -0.43471800 -0.11649400 1.64000600
v -5.5033000e-2 -1.53357600 -0.40951600
v -0.25065700 -1.53357600 0.32848600
v 0.43471900 -0.11649400 -1.64000600
v -1.46705200 -0.11649400 0.85226700
v -1.46705200 -0.11649400 0.85226700
v -1.64000600 -0.11649400 -0.43471800
v -0.85226700 -0.11649400 -1.46705200
v 0.40951600 -1.53357600 -5.5034000e-2
v -0.32848600 -1.53357600 -0.25065700
v 5.5034000e-2 -1.53357600 0.40951600
v 0.0000000e+0 -1.97244300 0.0000000e+0
v 0.85226700 -0.11649400 1.46705100
v 0.32848700 -1.53357600 0.25065700
v 1.64000600 -0.11649400 0.43471800
v 0.25065700 -1.53357600 -0.32848600
v -0.40951600 -1.53357600 5.5034000e-2
v 1.46705200 -0.11649400 -0.85226700
v -0.43471800 -0.11649400 1.64000600
v -5.5033000e-2 -1.53357600 -0.40951600
v -0.25065700 -1.53357600 0.32848600
v 0.43471900 -0.11649400 -1.64000600
v -1.46705200 -0.11649400 0.85226700
v -1.64000600 -0.11649400 -0.43471800
v -0.85226700 -0.11649400 -1.46705200
v 0.40951600 -1.53357600 -5.5034000e-2
v -0.32848600 -1.53357600 -0.25065700
v 5.5034000e-2 -1.53357600 0.40951600
v 0.85226700 -0.11649400 1.46705100
v 1.64000600 -0.11649400 0.43471800
v 1.46705200 -0.11649400 -0.85226700
v -0.43471800 -0.11649400 1.64000600
v 0.43471900 -0.11649400 -1.64000600
v -1.46705200 -0.11649400 0.85226700
v -1.64000600 -0.11649400 -0.43471800
v -0.85226700 -0.11649400 -1.46705200
v 0.85226700 -0.11649400 1.46705100
v 1.64000600 -0.11649400 0.43471800
v 1.46705200 -0.11649400 -0.85226700
v -0.43471800 -0.11649400 1.64000600
v 0.43471900 -0.11649400 -1.64000600
v -1.46705200 -0.11649400 0.85226700
v -1.64000600 -0.11649400 -0.43471800
v -0.85226700 -0.11649400 -1.46705200
v 0.55433900 0.14671600 0.95421300
v 1.06670800 0.14671600 0.28275400
v 0.95421300 0.14671600 -0.55433900
v -0.28275400 0.14671600 1.06670800
v 0.28275400 0.14671600 -1.06670800
v -0.95421300 0.14671600 0.55433900
v -1.06670800 0.14671600 -0.28275400
v -0.55433900 0.14671600 -0.95421300
v -0.81052400 0.14671600 -0.61848400
v -1.24613600 -0.11649400 -0.95088500
v -0.20877400 -0.11649400 -1.55352900
v -0.13579300 0.14671600 -1.01046000
v 0.61848400 0.14671600 -0.81052400
v 0.95088500 -0.11649400 -1.24613600
v 1.55352900 -0.11649400 -0.20877400
v 1.01046100 0.14671600 -0.13579300
v 1.55352900 -0.11649400 -0.20877400
v 1.24613600 -0.11649400 0.95088500
v 0.81052400 0.14671600 0.61848300
v 1.24613600 -0.11649400 0.95088500
v 0.13579300 0.14671600 1.01046100
v 0.20877400 -0.11649400 1.55352900
v -0.95088500 -0.11649400 1.24613600
v -0.61848400 0.14671600 0.81052400
v -1.55352900 -0.11649400 0.20877400
v -1.01046100 0.14671600 0.13579300
v -0.86315300 1.5111000e-2 1.13116300
v -1.13116300 1.5111000e-2 -0.86315300
v 0.18951200 1.5111000e-2 1.41019400
v -1.41019400 1.5111000e-2 0.18951200
v -0.18951200 1.5111000e-2 -1.41019400
v 1.41019400 1.5111000e-2 -0.18951200
v 1.13116300 1.5111000e-2 0.86315300
v 0.86315300 1.5111000e-2 -1.13116300
v -0.42146100 -0.11852800 1.63996600
v -0.41729400 -0.11649400 1.63766400
v -0.41729700 -0.11649400 1.63766500
v -1.44156900 -0.10341600 0.83746300
v -0.44212900 -0.11649400 1.63435100
v -0.44059200 -0.11753300 1.63663300
v -0.44172900 -0.11649400 1.63465600
v -1.46705200 -0.11649400 0.85226700
vn -0.96449497 -1.6656881e-2 0.26357543
vn 0.10093022 -0.67195669 -0.73368065
vn -0.29104556 -0.67195683 -0.68100404
vn -0.10153860 0.64715121 -0.75556947
vn -0.44742206 -0.67195657 -0.59015919
vn -0.68734337 -0.67195649 -0.27574184
vn -0.60606855 0.64714922 -0.46247032
vn -0.73368035 -0.67195687 -0.10093119
vn -0.96449497 -1.6656881e-2 0.26357543
vn -0.96449497 -1.6656881e-2 0.26357543
vn -0.59015929 -0.67195663 0.44742183
vn -0.27574074 -0.67195647 0.68734384
vn -0.46246827 0.64715306 0.60606602
vn 0.29104669 -0.67195655 0.68100383
vn -0.10093077 -0.67195683 0.73368045
vn 0.14857882 0.96406063 0.22025310
vn 0.10153886 0.64715186 0.75556888
vn 0.60606479 0.64715448 0.46246789
vn 0.44742143 -0.67195645 0.59015980
vn 0.68734337 -0.67195649 0.27574184
vn 0.73368060 -0.67195654 0.10093158
vn 0.68100395 -0.67195661 -0.29104627
vn 0.75556946 0.64715121 -0.10153868
vn 0.59015919 -0.67195657 -0.44742206
vn 0.27574220 -0.67195654 -0.68734317
vn 0.46247129 0.64714788 -0.60606924
vn 0.44742143 -0.67195645 0.59015980
vn 0.68734337 -0.67195649 0.27574184
vn 0.29104669 -0.67195655 0.68100383
vn 0.60606479 0.64715448 0.46246789
vn 0.44742143 -0.67195645 0.59015980
vn 0.0000000e+0 0.0000000e+0 0.0000000e+0
vn 0.0000000e+0 0.0000000e+0 0.0000000e+0
vn 0.10153886 0.64715186 0.75556888
vn 0.0000000e+0 1.00000000 1.0075533e-10
vn 0.44742143 -0.67195645 0.59015980
vn 0.68734337 -0.67195649 0.27574184
vn 0.0000000e+0 0.0000000e+0 0.0000000e+0
vn 0.0000000e+0 0.0000000e+0 0.0000000e+0
vn 0.29104669 -0.67195655 0.68100383
vn -0.10092945 -0.67195649 0.73368094
vn -0.10093077 -0.67195683 0.73368045
vn -0.59015961 -0.67195681 0.44742115
vn -0.59015929 -0.67195663 0.44742183
vn -0.27574031 -0.67195685 0.68734363
vn -0.27582880 -0.67193581 0.68732869
vn -0.27574074 -0.67195647 0.68734384
vn -0.73368035 -0.67195687 -0.10093119
vn -0.68100379 -0.67195693 0.29104591
vn -0.44742206 -0.67195657 -0.59015919
vn -0.68734337 -0.67195649 -0.27574184
vn 0.10093022 -0.67195669 -0.73368065
vn -0.29104556 -0.67195683 -0.68100404
vn 0.59015919 -0.67195657 -0.44742206
vn 0.27574220 -0.67195654 -0.68734317
vn 0.73368060 -0.67195654 0.10093158
vn 0.68100395 -0.67195661 -0.29104627
vn 0.73368060 -0.67195654 0.10093158
vn 0.60606479 0.64715448 0.46246789
vn 0.0000000e+0 0.0000000e+0 0.0000000e+0
vn 0.68734337 -0.67195649 0.27574184
vn 0.0000000e+0 0.0000000e+0 0.0000000e+0
vn 0.75556946 0.64715121 -0.10153868
vn 0.0000000e+0 -1.00000000 0.0000000e+0
vn 0.59015919 -0.67195657 -0.44742206
vn 0.27574220 -0.67195654 -0.68734317
vn 0.0000000e+0 0.0000000e+0 0.0000000e+0
vn 0.0000000e+0 0.0000000e+0 0.0000000e+0
vn -0.73368035 -0.67195687 -0.10093119
vn 0.0000000e+0 0.0000000e+0 0.0000000e+0
vn -0.68100379 -0.67195693 0.29104591
vn -0.68100379 -0.67195693 0.29104591
vn 0.59015919 -0.67195657 -0.44742206
vn 0.68100395 -0.67195661 -0.29104627
vn 0.0000000e+0 0.0000000e+0 0.0000000e+0
vn 0.0000000e+0 0.0000000e+0 0.0000000e+0
vn 0.75556946 0.64715121 -0.10153868
vn 0.46247129 0.64714788 -0.60606924
vn 0.0000000e+0 0.0000000e+0 0.0000000e+0
vn -0.10092945 -0.67195649 0.73368094
vn -0.10093077 -0.67195683 0.73368045
vn 0.14857882 0.96406063 0.22025310
vn 0.0000000e+0 0.0000000e+0 0.0000000e+0
vn -0.27574031 -0.67195685 0.68734363
vn -0.27582880 -0.67193581 0.68732869
vn 0.0000000e+0 0.0000000e+0 0.0000000e+0
vn -0.46250713 0.64706947 0.60612561
vn 0.10153886 0.64715186 0.75556888
vn 0.0000000e+0 1.00000000 0.0000000e+0
vn 0.10093022 -0.67195669 -0.73368065
vn 0.0000000e+0 0.0000000e+0 0.0000000e+0
vn -0.29104556 -0.67195683 -0.68100404
vn 0.0000000e+0 0.0000000e+0 0.0000000e+0
vn -0.59015961 -0.67195681 0.44742115
vn 0.0000000e+0 0.0000000e+0 0.0000000e+0
vn 0.0000000e+0 0.0000000e+0 0.0000000e+0
vn -0.27574031 -0.67195685 0.68734363
vn 0.10093022 -0.67195669 -0.73368065
vn 0.27574220 -0.67195654 -0.68734317
vn 0.0000000e+0 0.0000000e+0 0.0000000e+0
vn 0.0000000e+0 0.0000000e+0 0.0000000e+0
vn 0.46247129 0.64714788 -0.60606924
vn -0.10153860 0.64715121 -0.75556947
vn 0.0000000e+0 0.0000000e+0 0.0000000e+0
vn 0.0000000e+0 0.0000000e+0 0.0000000e+0
vn -0.46246827 0.64715306 0.60606602
vn -0.46251546 0.64706162 0.60612764
vn -0.59015961 -0.67195681 0.44742115
vn -0.59015929 -0.67195663 0.44742183
vn -0.73368035 -0.67195687 -0.10093119
vn -0.68734337 -0.67195649 -0.27574184
vn 0.0000000e+0 0.0000000e+0 0.0000000e+0
vn 0.0000000e+0 0.0000000e+0 0.0000000e+0
vn -0.60606855 0.64714922 -0.46247032
vn -0.75557286 0.64714717 0.10153914
vn -0.75557286 0.64714717 0.10153914
vn 0.0000000e+0 0.0000000e+0 0.0000000e+0
vn -0.44742206 -0.67195657 -0.59015919
vn 0.0000000e+0 0.0000000e+0 0.0000000e+0
vn -0.29104556 -0.67195683 -0.68100404
vn 0.0000000e+0 0.0000000e+0 0.0000000e+0
vn -0.10153860 0.64715121 -0.75556947
vn -0.60606855 0.64714922 -0.46247032
vn 0.0000000e+0 0.0000000e+0 0.0000000e+0
vn 0.0000000e+0 0.0000000e+0 0.0000000e+0
vn 0.73368060 -0.67195654 0.10093158
vn 0.68100395 -0.67195661 -0.29104627
vn 0.0000000e+0 0.0000000e+0 0.0000000e+0
vn 0.0000000e+0 0.0000000e+0 0.0000000e+0
vn -0.44742206 -0.67195657 -0.59015919
vn -0.68734337 -0.67195649 -0.27574184
vn 0.0000000e+0 0.0000000e+0 0.0000000e+0
vn 0.0000000e+0 0.0000000e+0 0.0000000e+0
vn 0.29104669 -0.67195655 0.68100383
vn -0.10092945 -0.67195649 0.73368094
vn 0.0000000e+0 0.0000000e+0 0.0000000e+0
vn 0.0000000e+0 0.0000000e+0 0.0000000e+0
vn 0.63819596 -0.67472074 -0.37075308
vn -0.37075207 -0.67472074 -0.63819655
vn 0.18911182 -0.67472071 -0.71343442
vn -0.71343463 -0.67472066 -0.18911125
vn 0.71343520 -0.67472066 0.18910907
vn 0.37075215 -0.67472055 0.63819670
vn -0.18911125 -0.67472066 0.71343463
vn -0.63819596 -0.67472074 0.37075308
vn 0.37075215 -0.67472055 0.63819670
vn 0.0000000e+0 0.0000000e+0 0.0000000e+0
vn 0.0000000e+0 0.0000000e+0 0.0000000e+0
vn 0.71343520 -0.67472066 0.18910907
vn 0.37075215 -0.67472055 0.63819670
vn 0.0000000e+0 0.0000000e+0 0.0000000e+0
vn 0.0000000e+0 0.0000000e+0 0.0000000e+0
vn 0.0000000e+0 0.0000000e+0 0.0000000e+0
vn 0.71343520 -0.67472066 0.18910907
vn 0.0000000e+0 0.0000000e+0 0.0000000e+0
vn 0.63819596 -0.67472074 -0.37075308
vn 0.18911182 -0.67472071 -0.71343442
vn 0.0000000e+0 0.0000000e+0 0.0000000e+0
vn 0.0000000e+0 0.0000000e+0 0.0000000e+0
vn 0.0000000e+0 0.0000000e+0 0.0000000e+0
vn -0.71343463 -0.67472066 -0.18911125
vn -0.63819596 -0.67472074 0.37075308
vn 0.0000000e+0 0.0000000e+0 0.0000000e+0
vn 0.0000000e+0 0.0000000e+0 0.0000000e+0
vn 0.63819596 -0.67472074 -0.37075308
vn 0.0000000e+0 0.0000000e+0 0.0000000e+0
vn 0.0000000e+0 0.0000000e+0 0.0000000e+0
vn -0.18911125 -0.67472066 0.71343463
vn 0.0000000e+0 0.0000000e+0 0.0000000e+0
vn 0.0000000e+0 0.0000000e+0 0.0000000e+0
vn -0.37075207 -0.67472074 -0.63819655
vn 0.18911182 -0.67472071 -0.71343442
vn 0.0000000e+0 0.0000000e+0 0.0000000e+0
vn 0.0000000e+0 0.0000000e+0 0.0000000e+0
vn 0.0000000e+0 0.0000000e+0 0.0000000e+0
vn -0.18911125 -0.67472066 0.71343463
vn -0.63819596 -0.67472074 0.37075308
vn 0.18911182 -0.67472071 -0.71343442
vn 0.0000000e+0 0.0000000e+0 0.0000000e+0
vn 0.0000000e+0 0.0000000e+0 0.0000000e+0
vn 0.0000000e+0 0.0000000e+0 0.0000000e+0
vn -0.63819596 -0.67472074 0.37075308
vn 0.0000000e+0 0.0000000e+0 0.0000000e+0
vn 0.0000000e+0 0.0000000e+0 0.0000000e+0
vn 0.0000000e+0 0.0000000e+0 0.0000000e+0
vn -0.71343463 -0.67472066 -0.18911125
vn 0.0000000e+0 0.0000000e+0 0.0000000e+0
vn 0.0000000e+0 0.0000000e+0 0.0000000e+0
vn -0.37075207 -0.67472074 -0.63819655
vn 0.0000000e+0 0.0000000e+0 0.0000000e+0
vn 0.0000000e+0 0.0000000e+0 0.0000000e+0
vn 0.63819596 -0.67472074 -0.37075308
vn 0.71343520 -0.67472066 0.18910907
vn 0.0000000e+0 0.0000000e+0 0.0000000e+0
vn 0.0000000e+0 0.0000000e+0 0.0000000e+0
vn -0.37075207 -0.67472074 -0.63819655
vn -0.71343463 -0.67472066 -0.18911125
vn 0.37075215 -0.67472055 0.63819670
vn -0.18911125 -0.67472066 0.71343463
vn 0.0000000e+0 0.0000000e+0 0.0000000e+0
vn 0.0000000e+0 0.0000000e+0 0.0000000e+0
vn 0.0000000e+0 -1.00000000 0.0000000e+0
vn 0.0000000e+0 -1.00000000 0.0000000e+0
vn 0.0000000e+0 1.00000000 0.0000000e+0
vn 0.0000000e+0 0.0000000e+0 0.0000000e+0
vn 0.0000000e+0 1.00000000 8.0239761e-11
vn 0.0000000e+0 1.00000000 1.0075533e-10
vn 0.0000000e+0 -1.00000000 0.0000000e+0
vn 0.0000000e+0 0.0000000e+0 0.0000000e+0
vn 0.0000000e+0 0.0000000e+0 0.0000000e+0
vn 0.0000000e+0 1.00000000 0.0000000e+0
vn 0.0000000e+0 1.00000000 0.0000000e+0
vn 0.0000000e+0 0.0000000e+0 0.0000000e+0
vn 0.0000000e+0 0.0000000e+0 0.0000000e+0
vn 0.0000000e+0 0.0000000e+0 0.0000000e+0
vn 0.0000000e+0 1.00000000 0.0000000e+0
vn 0.0000000e+0 0.0000000e+0 0.0000000e+0
vn 0.0000000e+0 0.0000000e+0 0.0000000e+0
vn 0.0000000e+0 0.0000000e+0 0.0000000e+0
vn 0.0000000e+0 1.00000000 0.0000000e+0
vn 0.14836511 0.91218376 0.38197982
vn 0.25833462 0.91218382 0.31809419
vn 0.53505476 0.73960929 0.40828238
vn 8.9642145e-2 0.73961131 0.66703778
vn 0.0000000e+0 1.00000000 8.0239761e-11
vn 0.37501055 0.91218368 0.16519089
vn 0.40759699 0.91218373 4.2255676e-2
vn 0.53505464 0.73960929 0.40828254
vn 0.66703789 0.73961131 -8.9641264e-2
vn 0.38197948 0.91218398 -0.14836460
vn 0.0000000e+0 1.00000000 0.0000000e+0
vn 0.31809368 0.91218400 -0.25833458
vn 0.40828188 0.73960929 -0.53505514
vn 0.66703791 0.73961131 -8.9641127e-2
vn 0.0000000e+0 -1.00000000 0.0000000e+0
vn -0.16641525 0.91159889 0.37589019
vn -4.1009892e-2 0.91102123 0.41031514
vn 0.0000000e+0 0.0000000e+0 0.0000000e+0
vn 0.16519094 0.91218377 -0.37501029
vn 4.2255632e-2 0.91218375 -0.40759694
vn -8.9641127e-2 0.73961131 -0.66703791
vn 0.40828304 0.73960929 -0.53505426
vn -0.39975877 0.76531118 0.50447173
vn -0.63624851 0.76531285 9.7386183e-2
vn -0.37501055 0.91218368 -0.16519089
vn -0.40759699 0.91218373 -4.2255676e-2
vn -0.53505464 0.73960929 -0.40828254
vn -0.66703789 0.73961131 8.9641264e-2
vn 0.0000000e+0 1.00000000 0.0000000e+0
vn -0.14836460 0.91218398 -0.38197948
vn -0.25833458 0.91218400 -0.31809368
vn -8.9641127e-2 0.73961131 -0.66703791
vn -0.53505514 0.73960929 -0.40828188
vn 0.0000000e+0 1.00000000 -9.6695210e-17
vn 0.0000000e+0 1.00000000 1.1004562e-16
vn 0.14836511 0.91218376 0.38197982
vn 0.25833462 0.91218382 0.31809419
vn 4.1316022e-2 0.95067041 0.30743903
vn 0.24660637 0.95067057 0.18817747
vn 0.0000000e+0 1.00000000 -1.6115848e-17
vn 0.0000000e+0 1.00000000 0.0000000e+0
vn 0.0000000e+0 1.00000000 0.0000000e+0
vn 0.37501055 0.91218368 0.16519089
vn 0.40759699 0.91218373 4.2255676e-2
vn 0.30743903 0.95067041 -4.1316022e-2
vn 0.24660637 0.95067057 0.18817747
vn 0.38197948 0.91218398 -0.14836460
vn 0.0000000e+0 1.00000000 -1.8232999e-16
vn 0.0000000e+0 1.00000000 0.0000000e+0
vn 0.31809368 0.91218400 -0.25833458
vn 0.18817773 0.95067044 -0.24660670
vn 0.30743903 0.95067041 -4.1316022e-2
vn 0.0000000e+0 1.00000000 1.1004611e-16
vn -0.16641525 0.91159889 0.37589019
vn -4.1009892e-2 0.91102123 0.41031514
vn -0.18817773 0.95067044 0.24660670
vn 4.1316022e-2 0.95067041 0.30743903
vn 0.0000000e+0 1.00000000 -1.1004581e-16
vn 0.16519094 0.91218377 -0.37501029
vn 4.2255632e-2 0.91218375 -0.40759694
vn 0.18817773 0.95067044 -0.24660670
vn -4.1315931e-2 0.95067064 -0.30743834
vn 0.0000000e+0 1.00000000 0.0000000e+0
vn 0.0000000e+0 1.00000000 0.0000000e+0
vn 0.0000000e+0 1.00000000 0.0000000e+0
vn -0.38198026 0.91218347 0.14836576
vn -0.31809505 0.91218349 0.25833468
vn -0.18817773 0.95067044 0.24660670
vn -0.30743903 0.95067041 4.1316022e-2
vn 0.0000000e+0 1.00000000 3.2231703e-17
vn 0.0000000e+0 1.00000000 -1.8232999e-16
vn 0.0000000e+0 1.00000000 0.0000000e+0
vn 0.0000000e+0 1.00000000 0.0000000e+0
vn -0.37501055 0.91218368 -0.16519089
vn -0.40759699 0.91218373 -4.2255676e-2
vn -0.30743903 0.95067041 4.1316022e-2
vn -0.24660670 0.95067044 -0.18817773
vn 0.0000000e+0 1.00000000 2.2009301e-16
vn -0.14836460 0.91218398 -0.38197948
vn -0.25833458 0.91218400 -0.31809368
vn -4.1315931e-2 0.95067064 -0.30743834
vn -0.24660670 0.95067044 -0.18817773
vn 0.0000000e+0 1.00000000 2.2009301e-16
vn 0.0000000e+0 1.00000000 0.0000000e+0
vn 0.0000000e+0 1.00000000 3.2231703e-17
vn -0.24660670 0.95067044 -0.18817773
vn 0.0000000e+0 1.00000000 0.0000000e+0
vn -0.53505464 0.73960929 -0.40828254
vn -0.53505514 0.73960929 -0.40828188
vn 0.0000000e+0 0.0000000e+0 0.0000000e+0
vn -8.9641127e-2 0.73961131 -0.66703791
vn -8.9641127e-2 0.73961131 -0.66703791
vn 0.0000000e+0 1.00000000 2.2009301e-16
vn 0.0000000e+0 1.00000000 -1.1004581e-16
vn 0.0000000e+0 1.00000000 0.0000000e+0
vn -4.1315931e-2 0.95067064 -0.30743834
vn 0.0000000e+0 1.00000000 -1.1004581e-16
vn 0.0000000e+0 1.00000000 0.0000000e+0
vn 0.0000000e+0 1.00000000 3.2231703e-17
vn 0.0000000e+0 1.00000000 -1.8232999e-16
vn 0.18817773 0.95067044 -0.24660670
vn 0.0000000e+0 1.00000000 0.0000000e+0
vn 0.40828188 0.73960929 -0.53505514
vn 0.40828304 0.73960929 -0.53505426
vn 0.75556946 0.64715121 -0.10153868
vn 0.0000000e+0 1.00000000 0.0000000e+0
vn 0.0000000e+0 1.00000000 0.0000000e+0
vn 0.0000000e+0 1.00000000 -1.6115848e-17
vn 0.30743903 0.95067041 -4.1316022e-2
vn 0.0000000e+0 1.00000000 8.0239761e-11
vn 0.66703789 0.73961131 -8.9641264e-2
vn 0.66703791 0.73961131 -8.9641127e-2
vn 0.60606479 0.64715448 0.46246789
vn 0.0000000e+0 -1.00000000 0.0000000e+0
vn 0.0000000e+0 1.00000000 0.0000000e+0
vn 0.0000000e+0 1.00000000 0.0000000e+0
vn 0.0000000e+0 1.00000000 -9.6695210e-17
vn 0.24660637 0.95067057 0.18817747
vn 0.0000000e+0 1.00000000 0.0000000e+0
vn 0.53505464 0.73960929 0.40828254
vn 0.53505476 0.73960929 0.40828238
vn 0.0000000e+0 1.00000000 1.1004562e-16
vn 0.0000000e+0 1.00000000 1.1004611e-16
vn 4.1316022e-2 0.95067041 0.30743903
vn 0.0000000e+0 -1.00000000 0.0000000e+0
vn 0.0000000e+0 -1.00000000 0.0000000e+0
vn 8.9641428e-2 0.73961131 0.66703787
vn 8.9642145e-2 0.73961131 0.66703778
vn -0.39975877 0.76531118 0.50447173
vn -0.40828244 0.73960929 0.53505471
vn 0.0000000e+0 1.00000000 0.0000000e+0
vn 0.0000000e+0 1.00000000 -9.6695210e-17
vn 0.0000000e+0 1.00000000 1.1004562e-16
vn 0.0000000e+0 1.00000000 1.1004611e-16
vn -0.18817773 0.95067044 0.24660670
vn -0.63624851 0.76531285 9.7386183e-2
vn -0.66703789 0.73961131 8.9641264e-2
vn 0.0000000e+0 1.00000000 0.0000000e+0
vn 0.0000000e+0 1.00000000 -1.6115848e-17
vn 0.0000000e+0 1.00000000 0.0000000e+0
vn -0.30743903 0.95067041 4.1316022e-2
vn -0.16641525 0.91159889 0.37589019
vn -0.31809505 0.91218349 0.25833468
vn -0.18817773 0.95067044 0.24660670
vn -0.39975877 0.76531118 0.50447173
vn -0.40828244 0.73960929 0.53505471
vn -0.37501055 0.91218368 -0.16519089
vn -0.25833458 0.91218400 -0.31809368
vn -0.24660670 0.95067044 -0.18817773
vn -0.53505464 0.73960929 -0.40828254
vn -0.53505514 0.73960929 -0.40828188
vn 0.14836511 0.91218376 0.38197982
vn -4.1009892e-2 0.91102123 0.41031514
vn 4.1316022e-2 0.95067041 0.30743903
vn 8.9641428e-2 0.73961131 0.66703787
vn 8.9642145e-2 0.73961131 0.66703778
vn -0.38198026 0.91218347 0.14836576
vn -0.40759699 0.91218373 -4.2255676e-2
vn -0.30743903 0.95067041 4.1316022e-2
vn -0.63624851 0.76531285 9.7386183e-2
vn -0.66703789 0.73961131 8.9641264e-2
vn -0.14836460 0.91218398 -0.38197948
vn 4.2255632e-2 0.91218375 -0.40759694
vn -4.1315931e-2 0.95067064 -0.30743834
vn -8.9641127e-2 0.73961131 -0.66703791
vn -8.9641127e-2 0.73961131 -0.66703791
vn 0.38197948 0.91218398 -0.14836460
vn 0.40759699 0.91218373 4.2255676e-2
vn 0.30743903 0.95067041 -4.1316022e-2
vn 0.66703789 0.73961131 -8.9641264e-2
vn 0.66703791 0.73961131 -8.9641127e-2
vn 0.37501055 0.91218368 0.16519089
vn 0.25833462 0.91218382 0.31809419
vn 0.24660637 0.95067057 0.18817747
vn 0.53505464 0.73960929 0.40828254
vn 0.53505476 0.73960929 0.40828238
vn 0.16519094 0.91218377 -0.37501029
vn 0.31809368 0.91218400 -0.25833458
vn 0.18817773 0.95067044 -0.24660670
vn 0.40828188 0.73960929 -0.53505514
vn 0.40828304 0.73960929 -0.53505426
vn 0.14857882 0.96406063 0.22025310
vn 0.10153886 0.64715186 0.75556888
vn 0.0000000e+0 1.00000000 1.0075533e-10
vn 0.0000000e+0 -1.00000000 0.0000000e+0
vn 0.0000000e+0 -1.00000000 0.0000000e+0
vn 0.0000000e+0 -1.00000000 0.0000000e+0
vn 0.0000000e+0 -1.00000000 0.0000000e+0
vn -4.1009892e-2 0.91102123 0.41031514
vn 0.0000000e+0 -1.00000000 0.0000000e+0
vn 8.9641428e-2 0.73961131 0.66703787
vn -0.38198026 0.91218347 0.14836576
vn -0.31809505 0.91218349 0.25833468
vn -0.39975877 0.76531118 0.50447173
vn -0.63624851 0.76531285 9.7386183e-2
vn -0.46250713 0.64706947 0.60612561
vn 0.0000000e+0 1.00000000 0.0000000e+0
vn -0.46251546 0.64706162 0.60612764
vn -0.27582880 -0.67193581 0.68732869
vn -0.27574074 -0.67195647 0.68734384
vn -0.46250713 0.64706947 0.60612561
vn -0.46246827 0.64715306 0.60606602
vn -0.46251546 0.64706162 0.60612764
vn -0.16641525 0.91159889 0.37589019
vn -0.40828244 0.73960929 0.53505471
g Diamond_Cone_Material.002
usemtl Material.002
s 1
f 3//8 29//110 21//69 14//48
f 4//11 28//109 13//44
f 4//13 106//422 27//106
f 5//16 101//402 23//82
f 6//19 10//31 11//36 9//27
f 16//53 24//92 30//120 1//3
f 17//55 20//66 26//99 8//25
f 18//57 31//127 22//74 7//22
f 19//60 37//153 48//190 31//128
f 22//76 40//166 38//159 20//68
f 23//80 33//135 12//41
f 25//96 43//175 41//167 23//83
f 29//114 30//123 2//7
f 30//124 58//217 55//209 26//104
f 32//133 49//195 46//184 29//112
f 34//140 42//172 44//178 38//157
f 34//145 43//177 45//182 39//162
f 36//150 35//146 50//198 34//143
f 55//211 80//322 61//231
f 57//216 76//307 66//249
f 62//237 103//409 95//373 70//275
f 63//242 100//401 80//324
f 65//247 94//370 76//308
f 65//246 96//378 73//295
f 67//255 90//353 87//342
f 67//256 95//372 59//221
f 68//263 99//392 60//226
f 69//267 98//387 61//230
f 69//271 100//399 71//281 79//321
f 72//284 85//335 68//262
f 73//292 82//326 69//269
f 74//299 97//382 66//250
f 75//306 74//302 94//369 73//297
f 75//304 79//318 78//315
f 77//311 97//385 63//241
f 82//328 92//359 68//260
f 83//331 98//390 60//229
f 86//341 99//396 59//223
f 88//346 103//410 102//407
f 89//349 93//365 104//414 64//243
f 90//355 72//288 93//364 70//276
f 96//377 104//412 72//286
f 105//416 106//421 23//87
s 2
f 1//4 30//122 26//103
f 5//14 12//40 33//134 10//29
f 7//21 19//58 31//126 18//56
f 8//24 22//73 20//65 17//54
f 10//35 102//404 54//207
f 11//39 36//152 37//155 19//62
f 13//43 28//108 25//94
f 15//51 32//131 29//111 2//6
f 20//67 38//158 44//180 26//101
f 23//86 41//169 50//201 33//137
f 23//85 106//419 13//46
f 24//91 42//170 47//187 30//119
f 26//105 55//210 53//205 22//79
f 27//107 106//423 105//418
f 29//113 46//185 39//160 21//70
f 29//117 57//215 58//218 30//125
f 38//156 40//165 48//192 34//138
f 51//202 84//334 19//64
f 52//204 86//339 59//220
f 53//206 83//330 60//225
f 56//212 105//417 23//89
f 58//219 77//310 63//238
f 59//224 95//376 88//348
f 60//227 98//388 68//264
f 60//228 99//395 86//340
f 61//234 98//391 83//332
f 61//232 100//398 69//270
f 63//240 97//383 71//280
f 64//244 104//415 96//380 91//356
f 66//251 94//368 74//300
f 66//252 97//386 77//312
f 67//259 99//394 68//266 85//338
f 69//268 79//320 73//291
f 70//274 93//362 107//424 62//236
f 72//285 90//351 85//336
f 72//287 104//413 93//363
f 73//294 94//367 65//245
f 75//303 78//313 74//298
f 78//314 79//317 71//278
f 87//344 70//277 95//374 67//258
f 88//345 102//406 51//203
f 92//361 73//296 96//379 72//289
s 3
f 1//2 26//98 24//90 16//52
f 5//15 23//81 12//42
f 6//18 19//59 84//333 10//30
f 7//23 22//77 81//325 19//63
f 8//26 26//102 22//78
f 10//32 35//147 36//151 11//38
f 13//45 25//97 23//84
f 13//47 106//420 4//12
f 30//121 47//188 49//194 32//132
f 31//129 48//191 40//164 22//75
f 34//142 48//193 37//154 36//149
f 34//144 50//199 41//168 43//176
f 39//161 46//186 49//197 34//141
f 59//222 99//393 67//257
f 68//261 92//360 72//283
f 68//265 98//389 69//272 82//329
f 71//282 97//384 74//301 78//316
f 71//279 100//397 63//239
f 73//290 79//319 75//305
f 73//293 92//358 82//327
f 76//309 94//371 66//253
f 80//323 100//400 61//233
f 85//337 90//352 67//254
f 87//343 90//354 70//273
f 95//375 103//411 88//347
s 4
f 2//5 30//118 32//130 15//50
f 3//10 108//1 29//115
f 9//28 11//37 19//61 6//20
f 10//34 23//88 101//403 5//17
f 14//49 21//71 108//1 3//9
f 25//95 108//1 45//181 43//174
f 26//100 44//179 42//173 24//93
f 29//116 108//1 56//213 57//214
f 33//136 50//200 35//148 10//33
f 34//139 49//196 47//189 42//171
f 39//163 45//183 108//1 21//72
f 54//208 102//405 103//408 62//235
f 89//350 107//425 93//366
f 91//357 96//381 65//248